<mxfile host="app.diagrams.net" modified="2022-02-13T03:15:36.044Z" agent="5.0 (Windows NT 10.0; Win64; x64) AppleWebKit/537.36 (KHTML, like Gecko) Chrome/98.0.4758.82 Safari/537.36" etag="b9xr_w8KMrcFXA8gOy0Q" version="16.5.6" type="github">
  <diagram name="Page-1" id="80d4a630-b321-0f5e-ff81-c5a36ef4752d">
    <mxGraphModel dx="1609" dy="1005" grid="1" gridSize="10" guides="1" tooltips="1" connect="1" arrows="1" fold="1" page="1" pageScale="1" pageWidth="1100" pageHeight="850" background="none" math="0" shadow="0">
      <root>
        <mxCell id="0" />
        <mxCell id="1" parent="0" />
        <mxCell id="0X543BgvdEmaDz9AnYV5-5" value="" style="rounded=1;whiteSpace=wrap;html=1;fillColor=#d5e8d4;strokeColor=#82b366;" vertex="1" parent="1">
          <mxGeometry x="840" y="80" width="290" height="680" as="geometry" />
        </mxCell>
        <mxCell id="0X543BgvdEmaDz9AnYV5-7" value="" style="rounded=1;whiteSpace=wrap;html=1;fillColor=#dae8fc;strokeColor=#6c8ebf;" vertex="1" parent="1">
          <mxGeometry x="481.75" y="80" width="278.25" height="680" as="geometry" />
        </mxCell>
        <mxCell id="0X543BgvdEmaDz9AnYV5-4" value="" style="rounded=1;whiteSpace=wrap;html=1;fillColor=#fff2cc;strokeColor=#d6b656;" vertex="1" parent="1">
          <mxGeometry x="120" y="80" width="280" height="680" as="geometry" />
        </mxCell>
        <mxCell id="oCu4YF_nnBhKggwX6Dzn-16" value="" style="endArrow=none;html=1;rounded=0;exitX=0;exitY=0.5;exitDx=0;exitDy=0;exitPerimeter=0;startArrow=none;strokeWidth=3;" parent="1" source="1slW5LMow_oR0COEgdxJ-6" edge="1">
          <mxGeometry width="50" height="50" relative="1" as="geometry">
            <mxPoint x="571.75" y="196" as="sourcePoint" />
            <mxPoint x="440" y="215" as="targetPoint" />
          </mxGeometry>
        </mxCell>
        <mxCell id="oCu4YF_nnBhKggwX6Dzn-28" value="" style="endArrow=none;dashed=1;html=1;rounded=0;strokeWidth=3;" parent="1" edge="1">
          <mxGeometry width="50" height="50" relative="1" as="geometry">
            <mxPoint x="440.38" y="757" as="sourcePoint" />
            <mxPoint x="440.38" y="80" as="targetPoint" />
          </mxGeometry>
        </mxCell>
        <mxCell id="oCu4YF_nnBhKggwX6Dzn-35" value="&lt;font style=&quot;font-size: 23px&quot;&gt;AS65550&lt;/font&gt;" style="text;html=1;strokeColor=#d79b00;fillColor=#ffe6cc;align=center;verticalAlign=middle;whiteSpace=wrap;rounded=1;glass=1;" parent="1" vertex="1">
          <mxGeometry x="145" y="100" width="230" height="30" as="geometry" />
        </mxCell>
        <mxCell id="0X543BgvdEmaDz9AnYV5-39" value="" style="edgeStyle=orthogonalEdgeStyle;rounded=0;orthogonalLoop=1;jettySize=auto;html=1;fontSize=11;strokeWidth=3;" edge="1" parent="1" source="oCu4YF_nnBhKggwX6Dzn-38" target="1slW5LMow_oR0COEgdxJ-26">
          <mxGeometry relative="1" as="geometry" />
        </mxCell>
        <mxCell id="oCu4YF_nnBhKggwX6Dzn-38" value="" style="outlineConnect=0;dashed=0;verticalLabelPosition=bottom;verticalAlign=top;align=center;html=1;shape=mxgraph.aws3.router;fillColor=#F58536;gradientColor=none;rounded=0;" parent="1" vertex="1">
          <mxGeometry x="187.75" y="342" width="142.25" height="141" as="geometry" />
        </mxCell>
        <mxCell id="oCu4YF_nnBhKggwX6Dzn-52" value="" style="endArrow=none;html=1;rounded=0;entryX=0.145;entryY=0.145;entryDx=0;entryDy=0;entryPerimeter=0;strokeWidth=4;" parent="1" target="0X543BgvdEmaDz9AnYV5-11" edge="1">
          <mxGeometry width="50" height="50" relative="1" as="geometry">
            <mxPoint x="800" y="355" as="sourcePoint" />
            <mxPoint x="935.1525000000001" y="371.31999999999994" as="targetPoint" />
          </mxGeometry>
        </mxCell>
        <mxCell id="oCu4YF_nnBhKggwX6Dzn-53" value="" style="endArrow=none;html=1;rounded=0;exitX=1;exitY=0.5;exitDx=0;exitDy=0;exitPerimeter=0;strokeWidth=3;" parent="1" source="0X543BgvdEmaDz9AnYV5-10" edge="1">
          <mxGeometry width="50" height="50" relative="1" as="geometry">
            <mxPoint x="679" y="638" as="sourcePoint" />
            <mxPoint x="800" y="642" as="targetPoint" />
          </mxGeometry>
        </mxCell>
        <mxCell id="oCu4YF_nnBhKggwX6Dzn-64" value="" style="endArrow=none;html=1;rounded=0;exitX=0.855;exitY=0.855;exitDx=0;exitDy=0;exitPerimeter=0;strokeWidth=3;" parent="1" source="oCu4YF_nnBhKggwX6Dzn-38" edge="1">
          <mxGeometry width="50" height="50" relative="1" as="geometry">
            <mxPoint x="280" y="420" as="sourcePoint" />
            <mxPoint x="440" y="463" as="targetPoint" />
          </mxGeometry>
        </mxCell>
        <mxCell id="1slW5LMow_oR0COEgdxJ-2" value="&lt;font style=&quot;font-size: 11px&quot;&gt;10.0.255.0/30&lt;/font&gt;" style="text;html=1;strokeColor=#666666;fillColor=#f5f5f5;align=center;verticalAlign=middle;whiteSpace=wrap;rounded=1;rotation=0;fontColor=#333333;glass=1;strokeWidth=3;" parent="1" vertex="1">
          <mxGeometry x="401.75" y="250" width="78.25" height="30" as="geometry" />
        </mxCell>
        <mxCell id="1slW5LMow_oR0COEgdxJ-9" value="0/2 | .5" style="text;html=1;strokeColor=#d79b00;fillColor=#ffe6cc;align=center;verticalAlign=middle;whiteSpace=wrap;rounded=1;glass=1;" parent="1" vertex="1">
          <mxGeometry x="700" y="630.5" width="50" height="20" as="geometry" />
        </mxCell>
        <mxCell id="1slW5LMow_oR0COEgdxJ-10" value="0/1 | .5" style="text;html=1;strokeColor=#6c8ebf;fillColor=#dae8fc;align=center;verticalAlign=middle;whiteSpace=wrap;rounded=1;rotation=0;glass=1;" parent="1" vertex="1">
          <mxGeometry x="300" y="452.25" width="50" height="20" as="geometry" />
        </mxCell>
        <mxCell id="1slW5LMow_oR0COEgdxJ-15" value="0/3 |.2" style="text;html=1;strokeColor=none;fillColor=none;align=center;verticalAlign=middle;whiteSpace=wrap;rounded=0;rotation=-91;" parent="1" vertex="1">
          <mxGeometry x="609" y="600" width="60" height="30" as="geometry" />
        </mxCell>
        <mxCell id="1slW5LMow_oR0COEgdxJ-16" value="&lt;font style=&quot;font-size: 11px&quot;&gt;10.0.255.4/30&lt;/font&gt;" style="text;html=1;strokeColor=#666666;fillColor=#f5f5f5;align=center;verticalAlign=middle;whiteSpace=wrap;rounded=1;rotation=0;fontColor=#333333;glass=1;strokeWidth=3;" parent="1" vertex="1">
          <mxGeometry x="401.75" y="530" width="78.25" height="30" as="geometry" />
        </mxCell>
        <mxCell id="1slW5LMow_oR0COEgdxJ-20" value="10.225.0.4" style="text;html=1;strokeColor=none;fillColor=none;align=center;verticalAlign=middle;whiteSpace=wrap;rounded=0;rotation=0;" parent="1" vertex="1">
          <mxGeometry x="995.5" y="371" width="60" height="30" as="geometry" />
        </mxCell>
        <mxCell id="0X543BgvdEmaDz9AnYV5-52" value="" style="edgeStyle=orthogonalEdgeStyle;rounded=0;orthogonalLoop=1;jettySize=auto;html=1;fontSize=33;strokeWidth=3;" edge="1" parent="1" source="1slW5LMow_oR0COEgdxJ-23" target="0X543BgvdEmaDz9AnYV5-48">
          <mxGeometry relative="1" as="geometry" />
        </mxCell>
        <mxCell id="1slW5LMow_oR0COEgdxJ-23" value="" style="image;html=1;image=img/lib/clip_art/networking/Switch_128x128.png;rounded=0;" parent="1" vertex="1">
          <mxGeometry x="1150" y="472.25" width="80" height="50" as="geometry" />
        </mxCell>
        <mxCell id="1slW5LMow_oR0COEgdxJ-24" value="Open NMS&lt;br&gt;" style="image;html=1;image=img/lib/clip_art/computers/Server_128x128.png;rounded=0;" parent="1" vertex="1">
          <mxGeometry x="1030" y="530" width="80" height="80" as="geometry" />
        </mxCell>
        <mxCell id="1slW5LMow_oR0COEgdxJ-26" value="10.225.0.1&lt;br&gt;" style="text;html=1;strokeColor=#10739e;fillColor=#b1ddf0;align=center;verticalAlign=middle;whiteSpace=wrap;rounded=1;rotation=0;glass=1;" parent="1" vertex="1">
          <mxGeometry x="10" y="383" width="100" height="59" as="geometry" />
        </mxCell>
        <mxCell id="1slW5LMow_oR0COEgdxJ-28" value="" style="endArrow=none;html=1;rounded=0;strokeWidth=3;exitX=0.145;exitY=0.855;exitDx=0;exitDy=0;exitPerimeter=0;" parent="1" source="0X543BgvdEmaDz9AnYV5-11" edge="1">
          <mxGeometry width="50" height="50" relative="1" as="geometry">
            <mxPoint x="940" y="460" as="sourcePoint" />
            <mxPoint x="800" y="460" as="targetPoint" />
          </mxGeometry>
        </mxCell>
        <mxCell id="1slW5LMow_oR0COEgdxJ-33" value="" style="endArrow=none;html=1;rounded=0;exitX=0.855;exitY=0.145;exitDx=0;exitDy=0;exitPerimeter=0;strokeWidth=3;" parent="1" source="oCu4YF_nnBhKggwX6Dzn-38" edge="1">
          <mxGeometry width="50" height="50" relative="1" as="geometry">
            <mxPoint x="320" y="370" as="sourcePoint" />
            <mxPoint x="440" y="362" as="targetPoint" />
          </mxGeometry>
        </mxCell>
        <mxCell id="1slW5LMow_oR0COEgdxJ-35" value="" style="endArrow=none;html=1;rounded=1;sketch=0;fontColor=#1A1A1A;strokeColor=#182E3E;curved=0;exitX=1;exitY=0.5;exitDx=0;exitDy=0;exitPerimeter=0;startArrow=none;strokeWidth=3;" parent="1" source="0X543BgvdEmaDz9AnYV5-9" edge="1">
          <mxGeometry width="50" height="50" relative="1" as="geometry">
            <mxPoint x="676.25" y="197.33974358974365" as="sourcePoint" />
            <mxPoint x="800" y="215" as="targetPoint" />
          </mxGeometry>
        </mxCell>
        <mxCell id="Hrdwqt9Lww7TiVUTjCyO-1" value="" style="endArrow=none;html=1;rounded=0;entryX=0;entryY=0.5;entryDx=0;entryDy=0;entryPerimeter=0;strokeWidth=3;" parent="1" edge="1" target="0X543BgvdEmaDz9AnYV5-10">
          <mxGeometry width="50" height="50" relative="1" as="geometry">
            <mxPoint x="440" y="641" as="sourcePoint" />
            <mxPoint x="570" y="641.5" as="targetPoint" />
          </mxGeometry>
        </mxCell>
        <mxCell id="0X543BgvdEmaDz9AnYV5-6" value="&lt;font style=&quot;font-size: 23px&quot;&gt;AS65560&lt;/font&gt;" style="text;html=1;strokeColor=#d79b00;fillColor=#ffe6cc;align=center;verticalAlign=middle;whiteSpace=wrap;rounded=1;glass=1;" vertex="1" parent="1">
          <mxGeometry x="869.03" y="100" width="230" height="30" as="geometry" />
        </mxCell>
        <mxCell id="0X543BgvdEmaDz9AnYV5-41" value="" style="edgeStyle=orthogonalEdgeStyle;rounded=0;orthogonalLoop=1;jettySize=auto;html=1;fontSize=11;strokeWidth=3;" edge="1" parent="1" source="0X543BgvdEmaDz9AnYV5-9" target="0X543BgvdEmaDz9AnYV5-40">
          <mxGeometry relative="1" as="geometry" />
        </mxCell>
        <mxCell id="0X543BgvdEmaDz9AnYV5-9" value="" style="outlineConnect=0;dashed=0;verticalLabelPosition=bottom;verticalAlign=top;align=center;html=1;shape=mxgraph.aws3.router;fillColor=#F58536;gradientColor=none;rounded=0;" vertex="1" parent="1">
          <mxGeometry x="552.88" y="144.5" width="142.25" height="141" as="geometry" />
        </mxCell>
        <mxCell id="0X543BgvdEmaDz9AnYV5-43" value="" style="edgeStyle=orthogonalEdgeStyle;rounded=0;orthogonalLoop=1;jettySize=auto;html=1;fontSize=11;strokeWidth=3;" edge="1" parent="1" source="0X543BgvdEmaDz9AnYV5-10" target="0X543BgvdEmaDz9AnYV5-42">
          <mxGeometry relative="1" as="geometry" />
        </mxCell>
        <mxCell id="0X543BgvdEmaDz9AnYV5-10" value="" style="outlineConnect=0;dashed=0;verticalLabelPosition=bottom;verticalAlign=top;align=center;html=1;shape=mxgraph.aws3.router;fillColor=#F58536;gradientColor=none;rounded=0;" vertex="1" parent="1">
          <mxGeometry x="552.88" y="570" width="142.25" height="141" as="geometry" />
        </mxCell>
        <mxCell id="0X543BgvdEmaDz9AnYV5-51" value="" style="edgeStyle=orthogonalEdgeStyle;rounded=0;orthogonalLoop=1;jettySize=auto;html=1;fontSize=33;strokeWidth=3;" edge="1" parent="1" source="0X543BgvdEmaDz9AnYV5-11" target="0X543BgvdEmaDz9AnYV5-48">
          <mxGeometry relative="1" as="geometry" />
        </mxCell>
        <mxCell id="0X543BgvdEmaDz9AnYV5-11" value="" style="outlineConnect=0;dashed=0;verticalLabelPosition=bottom;verticalAlign=top;align=center;html=1;shape=mxgraph.aws3.router;fillColor=#F58536;gradientColor=none;rounded=0;" vertex="1" parent="1">
          <mxGeometry x="913.87" y="335" width="146.13" height="145" as="geometry" />
        </mxCell>
        <mxCell id="1slW5LMow_oR0COEgdxJ-7" value="0/1 | .6" style="text;html=1;strokeColor=#d79b00;fillColor=#ffe6cc;align=center;verticalAlign=middle;whiteSpace=wrap;rounded=1;glass=1;" parent="1" vertex="1">
          <mxGeometry x="502.43" y="630.5" width="44.88" height="20" as="geometry" />
        </mxCell>
        <mxCell id="0X543BgvdEmaDz9AnYV5-14" style="edgeStyle=orthogonalEdgeStyle;rounded=0;orthogonalLoop=1;jettySize=auto;html=1;exitX=0.5;exitY=1;exitDx=0;exitDy=0;fontSize=23;" edge="1" parent="1" source="1slW5LMow_oR0COEgdxJ-11" target="1slW5LMow_oR0COEgdxJ-11">
          <mxGeometry relative="1" as="geometry" />
        </mxCell>
        <mxCell id="0X543BgvdEmaDz9AnYV5-15" value="" style="endArrow=none;html=1;rounded=0;exitX=0.5;exitY=0;exitDx=0;exitDy=0;exitPerimeter=0;startArrow=none;strokeWidth=3;" edge="1" parent="1" source="0X543BgvdEmaDz9AnYV5-22" target="0X543BgvdEmaDz9AnYV5-9">
          <mxGeometry width="50" height="50" relative="1" as="geometry">
            <mxPoint x="626.75" y="580" as="sourcePoint" />
            <mxPoint x="624" y="280" as="targetPoint" />
          </mxGeometry>
        </mxCell>
        <mxCell id="1slW5LMow_oR0COEgdxJ-6" value="0/1 | .2" style="text;html=1;strokeColor=#d79b00;fillColor=#ffe6cc;align=center;verticalAlign=middle;whiteSpace=wrap;rounded=1;glass=1;" parent="1" vertex="1">
          <mxGeometry x="500" y="205" width="49.75" height="20" as="geometry" />
        </mxCell>
        <mxCell id="0X543BgvdEmaDz9AnYV5-17" value="" style="endArrow=none;html=1;rounded=0;exitX=0;exitY=0.5;exitDx=0;exitDy=0;exitPerimeter=0;" edge="1" parent="1" source="0X543BgvdEmaDz9AnYV5-9" target="1slW5LMow_oR0COEgdxJ-6">
          <mxGeometry width="50" height="50" relative="1" as="geometry">
            <mxPoint x="552.8799999999999" y="215" as="sourcePoint" />
            <mxPoint x="440" y="215" as="targetPoint" />
          </mxGeometry>
        </mxCell>
        <mxCell id="1slW5LMow_oR0COEgdxJ-11" value="0/2 | .2" style="text;html=1;strokeColor=#d79b00;fillColor=#ffe6cc;align=center;verticalAlign=middle;whiteSpace=wrap;rounded=1;glass=1;" parent="1" vertex="1">
          <mxGeometry x="700" y="205" width="42" height="20" as="geometry" />
        </mxCell>
        <mxCell id="1slW5LMow_oR0COEgdxJ-5" value="0/1 | .1" style="text;html=1;strokeColor=#6c8ebf;fillColor=#dae8fc;align=center;verticalAlign=middle;whiteSpace=wrap;rounded=1;rotation=0;glass=1;" parent="1" vertex="1">
          <mxGeometry x="300" y="352" width="50" height="20" as="geometry" />
        </mxCell>
        <mxCell id="1slW5LMow_oR0COEgdxJ-14" value="&lt;font style=&quot;font-size: 11px&quot;&gt;10.0.253.0/30&lt;/font&gt;" style="text;html=1;strokeColor=#666666;fillColor=#f5f5f5;align=center;verticalAlign=middle;whiteSpace=wrap;rounded=1;rotation=0;glass=1;fontColor=#333333;strokeWidth=3;" parent="1" vertex="1">
          <mxGeometry x="580" y="397.5" width="85.99" height="30" as="geometry" />
        </mxCell>
        <mxCell id="1slW5LMow_oR0COEgdxJ-12" value="0/3 | .1" style="text;html=1;strokeColor=#d79b00;fillColor=#ffe6cc;align=center;verticalAlign=middle;whiteSpace=wrap;rounded=1;rotation=0;glass=1;" parent="1" vertex="1">
          <mxGeometry x="601.5" y="285.5" width="45" height="24" as="geometry" />
        </mxCell>
        <mxCell id="0X543BgvdEmaDz9AnYV5-22" value="0/3 | .2" style="text;html=1;strokeColor=#d79b00;fillColor=#ffe6cc;align=center;verticalAlign=middle;whiteSpace=wrap;rounded=1;rotation=0;glass=1;" vertex="1" parent="1">
          <mxGeometry x="601.75" y="546" width="45" height="24" as="geometry" />
        </mxCell>
        <mxCell id="0X543BgvdEmaDz9AnYV5-23" value="" style="endArrow=none;html=1;rounded=0;exitX=0.5;exitY=0;exitDx=0;exitDy=0;exitPerimeter=0;" edge="1" parent="1" source="0X543BgvdEmaDz9AnYV5-10" target="0X543BgvdEmaDz9AnYV5-22">
          <mxGeometry width="50" height="50" relative="1" as="geometry">
            <mxPoint x="624.0050000000001" y="570" as="sourcePoint" />
            <mxPoint x="624.0050000000001" y="285.5" as="targetPoint" />
          </mxGeometry>
        </mxCell>
        <mxCell id="0X543BgvdEmaDz9AnYV5-26" value="" style="endArrow=none;dashed=1;html=1;rounded=0;strokeWidth=3;" edge="1" parent="1">
          <mxGeometry width="50" height="50" relative="1" as="geometry">
            <mxPoint x="800" y="758.5" as="sourcePoint" />
            <mxPoint x="800" y="81.5" as="targetPoint" />
          </mxGeometry>
        </mxCell>
        <mxCell id="1slW5LMow_oR0COEgdxJ-13" value="&lt;font style=&quot;font-size: 11px&quot;&gt;10.0.254.0/30&lt;/font&gt;" style="text;html=1;strokeColor=#666666;fillColor=#f5f5f5;align=center;verticalAlign=middle;whiteSpace=wrap;rounded=1;rotation=0;glass=1;fontColor=#333333;strokeWidth=3;" parent="1" vertex="1">
          <mxGeometry x="760" y="250" width="80" height="30" as="geometry" />
        </mxCell>
        <mxCell id="1slW5LMow_oR0COEgdxJ-17" value="&lt;font style=&quot;font-size: 11px&quot;&gt;10.0.254.4/30&lt;/font&gt;" style="text;html=1;strokeColor=#666666;fillColor=#f5f5f5;align=center;verticalAlign=middle;whiteSpace=wrap;rounded=1;rotation=0;glass=1;fontColor=#333333;strokeWidth=3;" parent="1" vertex="1">
          <mxGeometry x="762.27" y="530" width="75.47" height="30" as="geometry" />
        </mxCell>
        <mxCell id="1slW5LMow_oR0COEgdxJ-18" value="0/2 | .6" style="text;html=1;strokeColor=#9673a6;fillColor=#e1d5e7;align=center;verticalAlign=middle;whiteSpace=wrap;rounded=1;rotation=0;glass=1;" parent="1" vertex="1">
          <mxGeometry x="890" y="450" width="50" height="22.25" as="geometry" />
        </mxCell>
        <mxCell id="1slW5LMow_oR0COEgdxJ-8" value="0/1 | .1" style="text;html=1;strokeColor=#9673a6;fillColor=#e1d5e7;align=center;verticalAlign=middle;whiteSpace=wrap;rounded=1;rotation=0;glass=1;" parent="1" vertex="1">
          <mxGeometry x="890" y="340" width="50" height="25" as="geometry" />
        </mxCell>
        <mxCell id="0X543BgvdEmaDz9AnYV5-40" value="10.225.0.2" style="text;html=1;strokeColor=#10739e;fillColor=#b1ddf0;align=center;verticalAlign=middle;whiteSpace=wrap;rounded=1;rotation=0;glass=1;" vertex="1" parent="1">
          <mxGeometry x="574.25" y="10" width="100" height="59" as="geometry" />
        </mxCell>
        <mxCell id="0X543BgvdEmaDz9AnYV5-8" value="&lt;font style=&quot;font-size: 23px&quot;&gt;AS65540&lt;/font&gt;" style="text;html=1;strokeColor=#d79b00;fillColor=#ffe6cc;align=center;verticalAlign=middle;whiteSpace=wrap;rounded=1;glass=1;" vertex="1" parent="1">
          <mxGeometry x="509" y="100" width="230" height="30" as="geometry" />
        </mxCell>
        <mxCell id="0X543BgvdEmaDz9AnYV5-42" value="10.225.0.3" style="text;html=1;strokeColor=#10739e;fillColor=#b1ddf0;align=center;verticalAlign=middle;whiteSpace=wrap;rounded=1;rotation=0;glass=1;" vertex="1" parent="1">
          <mxGeometry x="574.25" y="770" width="100" height="59" as="geometry" />
        </mxCell>
        <mxCell id="0X543BgvdEmaDz9AnYV5-44" value="R1" style="rounded=1;whiteSpace=wrap;html=1;glass=1;fontSize=33;strokeWidth=1;fontStyle=1;shadow=1;" vertex="1" parent="1">
          <mxGeometry x="170" y="442" width="61.12" height="50" as="geometry" />
        </mxCell>
        <mxCell id="0X543BgvdEmaDz9AnYV5-45" value="R2" style="rounded=1;whiteSpace=wrap;html=1;glass=1;fontSize=33;strokeWidth=1;fontStyle=1;shadow=1;" vertex="1" parent="1">
          <mxGeometry x="540.3800000000001" y="235.5" width="61.12" height="50" as="geometry" />
        </mxCell>
        <mxCell id="0X543BgvdEmaDz9AnYV5-46" value="R3" style="rounded=1;whiteSpace=wrap;html=1;glass=1;fontSize=33;strokeWidth=1;fontStyle=1;shadow=1;" vertex="1" parent="1">
          <mxGeometry x="540.3800000000001" y="661" width="61.12" height="50" as="geometry" />
        </mxCell>
        <mxCell id="0X543BgvdEmaDz9AnYV5-47" value="R4" style="rounded=1;whiteSpace=wrap;html=1;glass=1;fontSize=33;strokeWidth=1;fontStyle=1;shadow=1;" vertex="1" parent="1">
          <mxGeometry x="1020" y="437" width="61.12" height="50" as="geometry" />
        </mxCell>
        <mxCell id="0X543BgvdEmaDz9AnYV5-48" value="10.225.0.4" style="text;html=1;strokeColor=#10739e;fillColor=#b1ddf0;align=center;verticalAlign=middle;whiteSpace=wrap;rounded=1;rotation=0;glass=1;" vertex="1" parent="1">
          <mxGeometry x="1140" y="378" width="100" height="59" as="geometry" />
        </mxCell>
        <mxCell id="0X543BgvdEmaDz9AnYV5-53" value="" style="endArrow=none;html=1;rounded=0;fontSize=33;strokeWidth=3;exitX=1;exitY=0.5;exitDx=0;exitDy=0;entryX=0.5;entryY=1;entryDx=0;entryDy=0;" edge="1" parent="1" source="1slW5LMow_oR0COEgdxJ-24" target="1slW5LMow_oR0COEgdxJ-23">
          <mxGeometry width="50" height="50" relative="1" as="geometry">
            <mxPoint x="670" y="460" as="sourcePoint" />
            <mxPoint x="720" y="410" as="targetPoint" />
            <Array as="points">
              <mxPoint x="1190" y="570" />
            </Array>
          </mxGeometry>
        </mxCell>
      </root>
    </mxGraphModel>
  </diagram>
</mxfile>
